<svg xmlns="http://www.w3.org/2000/svg" viewBox="0 0 24 24" fill="currentColor">
  <rect width="24" height="24" rx="4" fill="#fff"/>
  <path d="M3 6.75A2.25 2.25 0 0 1 5.25 4.5h13.5A2.25 2.25 0 0 1 21 6.75v10.5A2.25 2.25 0 0 1 18.75 19.5H5.25A2.25 2.25 0 0 1 3 17.25V6.75zm2.25-.75a.75.75 0 0 0-.75.75v.637l7.5 5.625 7.5-5.625V6.75a.75.75 0 0 0-.75-.75H5.25zm15 2.323-6.98 5.23a1.25 1.25 0 0 1-1.54 0L4.75 8.323V17.25c0 .414.336.75.75.75h13.5a.75.75 0 0 0 .75-.75V8.323z" fill="#EA4335"/>
</svg>
